PathFileType	4	(X/Y/Z)	path1_04_0-548.trc
DataRate	CameraRate	NumFrames	NumMarkers	Units	OrigDataRate	OrigDataStartFrame	OrigNumFrames
30	30	9	22	m	30	205	548
Frame#	Time	Hip			RHip			RKnee			RAnkle			RBigToe			RSmallToe			RHeel			LHip			LKnee			LAnkle			LBigToe			LSmallToe			LHeel			Neck			Head			Nose			RShoulder			RElbow			RWrist			LShoulder			LElbow			LWrist		
		X1	Y1	Z1	X2	Y2	Z2	X3	Y3	Z3	X4	Y4	Z4	X5	Y5	Z5	X6	Y6	Z6	X7	Y7	Z7	X8	Y8	Z8	X9	Y9	Z9	X10	Y10	Z10	X11	Y11	Z11	X12	Y12	Z12	X13	Y13	Z13	X14	Y14	Z14	X15	Y15	Z15	X16	Y16	Z16	X17	Y17	Z17	X18	Y18	Z18	X19	Y19	Z19	X20	Y20	Z20	X21	Y21	Z21	X22	Y22	Z22
206	6.866666666666666	2.700450113415429	0.8362120709211793	0.454211743603726	2.7021102215386654	0.799656639923446	0.3715783777139996	2.7004857992828892	0.4623387549308596	0.3698000950716556	2.7434993001388546	0.10529053180568494	0.382386794700327	2.5778779864276125	0.023951599662526288	0.3581762342979177	2.60895390522797	0.019517448672185727	0.3010106882547969	2.798714725240843	0.030536556305050394	0.3932771224219594	2.706877982942807	0.799024315704421	0.5337688182617311	2.727751984831723	0.43416927873009126	0.5219694845237675	2.768225208063977	0.09155225054923287	0.5425625939792175	2.58678904180614	0.01461905549427283	0.5723065260331739	2.631018490347985	0.004541737009074763	0.6134426931527184	2.804270363382602	0.03264390329316483	0.5170997919968522	2.6705884825001127	1.4659875473075759	0.4739472332190197	2.62378379957161	1.701591647299689	0.4585966914631685	2.5317547373099565	1.5968951062561327	0.4563835418872356	2.712849613713201	1.3671460180049357	0.29866537399634463	2.71876191854755	1.0803975667743642	0.2283679962410461	2.6869313902113605	0.8510293410962271	0.21131171634771717	2.720244918291108	1.3494491641989839	0.5973842365069306	2.7468144439618474	1.0687432290977004	0.6676058051940409	2.7279340864093005	0.8368180943361736	0.6889098156925507
207	6.9	2.7016798873342562	0.8365208327869015	0.45506556064313547	2.7043444615072847	0.8012556317314202	0.3732781516203548	2.7057171612215347	0.4602137927110699	0.3772172373141032	2.740240210370201	0.10645863034876217	0.38055027813045145	2.577843083791245	0.02556848961975291	0.357964527530266	2.607199776429556	0.0204060117705367	0.3000382366608094	2.7985379579856726	0.03054226939865269	0.39415217209988196	2.706967514971453	0.8011101559182869	0.5358291632674693	2.7271568511840805	0.4348612523777133	0.5252704698761287	2.7652390110289287	0.09355968720889998	0.5402880306995537	2.587073260037245	0.014639362008754908	0.5725730956502137	2.6329114095248856	0.0059375155380335725	0.6175310613496259	2.8012267313354817	0.03422417816801489	0.5159300992102547	2.67116841325146	1.465727069162185	0.47505939874741276	2.623580140385199	1.7005116159730187	0.4621861934086045	2.5320829074945665	1.5964610125768441	0.45723834341497904	2.7129231113375285	1.3674295490244375	0.298582399057473	2.719304510646942	1.0803315286979784	0.2286750830269953	2.686585386515961	0.8504699574279359	0.21179058028039272	2.7182555388195615	1.3504622558097121	0.5989159882816689	2.7474229737643356	1.06906289422351	0.6680166837823502	2.728176205144452	0.8370509613860974	0.6893372968749998
208	6.933333333333334	2.7027031338987024	0.8369394382076927	0.45578038869496973	2.706715397101788	0.8029257143457504	0.3749214569512101	2.711054561686544	0.4579702265307419	0.38479902072095257	2.7358825000907094	0.10786347012993239	0.37817103246699746	2.5776678348268938	0.02725950999782617	0.35742586214843575	2.604777369346194	0.0212265794240907	0.29855580497669065	2.7986669621760094	0.030295966319611775	0.3956602697563835	2.7067611251248898	0.8031436432955478	0.5376743241646633	2.72636515025949	0.43570502026686125	0.5273574503772266	2.7613194014489246	0.0961405839450511	0.5369786570763886	2.5871945982222595	0.014902054390556935	0.5728835701210664	2.63466590141439	0.007768095823796553	0.6220566176556683	2.7986271860335625	0.035438902858557324	0.5155444553243217	2.6716005710615316	1.4654166606355168	0.4761038308576538	2.6254590392591517	1.699497935045268	0.46832879209422235	2.532286680680634	1.5961476546730655	0.457359652974415	2.7131162753687565	1.3677827919853722	0.29862407374542077	2.719808961886724	1.080103701412413	0.2289532063052675	2.686323249701911	0.8498013271402065	0.21215131667126386	2.7154872453794634	1.3514753662008294	0.6007873699438044	2.747982606104409	1.0694525435641127	0.668650578304055	2.728271387144176	0.8374042159392832	0.6896949805621199
209	6.966666666666667	2.703439851613491	0.8373205975255378	0.45628507086347897	2.7088703186674206	0.8042661069183165	0.37619783948619157	2.7150083882891254	0.45621097272468086	0.3904796490329777	2.7317371482121797	0.10904036579339689	0.37606816554773104	2.5773815777622207	0.0285178109728883	0.3566718844435926	2.602335088839425	0.021726998885899663	0.29699373317620104	2.798968449245602	0.030072144506788592	0.3971439272818178	2.706337145520335	0.8046967535733981	0.5390484751138404	2.7255183079619316	0.4364691528307288	0.527514881795986	2.7570754333776266	0.09882297186730973	0.5333864020765724	2.587239288060192	0.015264465766134412	0.5731557922846123	2.635896719139722	0.009580849995126439	0.6258593924957446	2.7967049828868977	0.03612757011032762	0.5155866542176137	2.671844757937362	1.4651239115812698	0.4769051217727546	2.6290197038152443	1.6993345770038921	0.4747369044505476	2.5323646264959243	1.595978704425848	0.4568450846378986	2.713391316135391	1.3680722166923078	0.2987538777998607	2.7201583867025474	1.0798028360780318	0.22920072816260828	2.686166929114891	0.8491829921224205	0.21243912864661257	2.712143389124466	1.3522806890962233	0.6029833723520419	2.748424148677148	1.069844686226717	0.669405161273948	2.728287140507243	0.8378123317693701	0.6899465740924454
210	7.0	2.7038427645654464	0.8375526933062265	0.4565626169118962	2.7105112012267276	0.8050471161878007	0.3769677535467258	2.716983145323246	0.45520492879960495	0.393434322810146	2.729159532398401	0.10966502683654246	0.3749267163261082	2.5770471656972775	0.028989148068489734	0.35587449653206965	2.600593959734029	0.02180305845742201	0.2957992955358509	2.7991968131146416	0.030097229221295416	0.3982081374483145	2.7058669525450942	0.8055692762669634	0.5398638799196673	2.724761432437958	0.4369686223722407	0.5262384197204728	2.7531001934216763	0.101216263559173	0.5300343925750738	2.5872677444276886	0.015529088720986267	0.5732807592199513	2.636311033569558	0.01105222394617278	0.6280120941946441	2.795701896422989	0.03614259506174555	0.5158210461046824	2.6719524810441064	1.4648990040841012	0.4773419078721274	2.632033747374736	1.7000440708031144	0.47947040980548006	2.5323866232435797	1.595952475351554	0.45593465032521324	2.7137058071447426	1.3681867460873185	0.29894685920306074	2.720337285642915	1.0795303293472698	0.2294009852272021	2.6861057895586455	0.8487320010018936	0.21265534506143124	2.7086632890146753	1.3527166026780788	0.6054223003447708	2.748719120502467	1.0701445718645297	0.6701223734431913	2.728295861083049	0.838172132537294	0.6900784509141606
211	7.033333333333333	2.7039080656970595	0.837591486066249	0.45662739080423626	2.7114345528311334	0.8052751195526157	0.3772451785309554	2.7176369982466984	0.4546743994235625	0.3945372376045492	2.7290225906348273	0.10968146501129551	0.3751479167196741	2.576723981995187	0.028590714148667158	0.3551682029471807	2.6000107893004207	0.02151634377872676	0.2952832786011062	2.799236922923751	0.030433584635891964	0.3986950626126767	2.7055060314616965	0.8057867706030086	0.5401675530128349	2.724195161556588	0.4371314692250564	0.5245925828271318	2.749929704720999	0.10303019484321978	0.527342606039624	2.587315904895614	0.015512049857118338	0.5731548851976985	2.635784862943816	0.012176276289814967	0.6281444481581403	2.795691423479319	0.03545281888240538	0.5161434610960536	2.6720089717160906	1.464743533579401	0.47737839981543007	2.632718243280499	1.701142116829087	0.4815790010862784	2.5324319761469867	1.5960403838410915	0.4549422910861023	2.7140125395426433	1.368097830238025	0.2991474702992893	2.7204466171671715	1.0793479054989434	0.2295309546454599	2.6861309693510687	0.8484970206944893	0.2127759560543918	2.7058853915883274	1.3527759208658574	0.6076076263310899	2.7488926924786625	1.0702984675219458	0.6706677563028688	2.7283556427524234	0.8383938712221883	0.6901106852318508
212	7.066666666666666	2.703690967055391	0.8374379842866977	0.45649919001318656	2.7115596580528325	0.8050740292987731	0.37707938319673795	2.7178074078666032	0.454279116890164	0.39488614189355004	2.7313143265361286	0.10924431439229149	0.37671307647507346	2.576466610974738	0.02747278858279768	0.35466162532701107	2.6005545439812288	0.02099569244038359	0.2954940280244721	2.7991385417574106	0.03096840942800283	0.39862220114581914	2.7053291248152513	0.8054531062501996	0.540042121160961	2.723870402808104	0.4369506129464923	0.5232854652002839	2.7478759444770158	0.1041271807248813	0.5255918850968329	2.5874460126383685	0.015082986015506823	0.5727056761904086	2.6343240581346445	0.013170983399313644	0.6262845644301083	2.796562076803725	0.034158490639890626	0.5165093283410626	2.672070764305015	1.4646424091763095	0.47707576060117074	2.6314707678267557	1.702161800689403	0.48133704371650426	2.5325515627697364	1.5961986554875138	0.4541675767118739	2.714275875281653	1.3678472083842232	0.29927980346235117	2.7205947638195886	1.0792747848064637	0.22957942683824084	2.6862471985238496	0.8484710609874373	0.21278966370094435	2.704900068812908	1.352582083066381	0.6086283672692985	2.7490071486047336	1.0703326132294178	0.6710069210291036	2.728503238584657	0.8384424418657838	0.690078142253344
213	7.1	2.7033086450507566	0.8371190174482152	0.4562127037785722	2.71095503941586	0.8045582220858032	0.3764801709683202	2.7176807227569855	0.45399852412395236	0.3947465987115558	2.7352514294139114	0.10855799618133365	0.3791083595229579	2.576375055478147	0.02600261530519879	0.35449411727228086	2.6018536634734475	0.02036265193210846	0.29620734041567715	2.799010311770519	0.03149393121773371	0.39819607983885613	2.70534706621848	0.8046386934775869	0.5395298073453756	2.723799605705669	0.4364505838551297	0.5225277811094543	2.7468979674257685	0.1046271042607215	0.5247738917325777	2.5877452690888822	0.014223200647731844	0.5719151604519923	2.632074393453527	0.014301984650176383	0.6227945308105165	2.7980660666938446	0.032523704572021084	0.5169021368442653	2.672134220245892	1.46460806268611	0.47658061680613584	2.629820276907126	1.7028538074625814	0.47961737849068314	2.532752206889083	1.5964009318636545	0.4537841888164434	2.7144776795017322	1.3675128240452277	0.2992787773094766	2.7207853613291677	1.0793075007468873	0.22954567859071195	2.686468268626881	0.8486145804620763	0.21270839081986914	2.706114887111276	1.3522092887273154	0.6080503213126008	2.7491077783561675	1.0703188668171177	0.6712120724885384	2.7287149080416397	0.8383402682664645	0.6900196518371721
214	7.133333333333334	2.7028949401531364	0.8367114467957079	0.4558324410324057	2.709822527408578	0.8037829788056585	0.375493350407115	2.7171706058023024	0.45392736831908215	0.3941152785200538	2.739453918621265	0.1078266481355889	0.38138314328063244	2.5765972885308264	0.024701912532583036	0.3548128570563117	2.6034324426456963	0.019716304142450156	0.2970292673439089	2.7989388054537745	0.031807288046295144	0.39773083060679415	2.7055344191849438	0.8033865508172208	0.5386541231236736	2.723958812512734	0.4357361955798592	0.5222280609648002	2.7468168540656137	0.10476827498072479	0.5247240821075646	2.588222151651143	0.01313623364931921	0.5708944080717154	2.6294005062551546	0.015649081339626187	0.6184883950198496	2.7997670888144284	0.03103662860918881	0.5173228862320927	2.6721399070103833	1.4646834495510372	0.47607724929693884	2.628521281450318	1.7031930280393281	0.47715817098507474	2.532989426085137	1.5966425766637888	0.45381398467587747	2.714620832392973	1.3671729608889263	0.2991297374040202	2.7209083570377235	1.0794345913148735	0.2294357306868404	2.686798794229695	0.8488621350001194	0.21256193214883398	2.7086116429522633	1.3515885443311972	0.6065844133042901	2.7491869771277315	1.0703199353121273	0.6713766887777534	2.7288952458012345	0.8381573833878563	0.689979848913539
